<?xml version="1.0" encoding="utf-8"?>
<!-- Generator: Adobe Illustrator 16.0.0, SVG Export Plug-In . SVG Version: 6.00 Build 0)  -->
<!DOCTYPE svg PUBLIC "-//W3C//DTD SVG 1.1//EN" "http://www.w3.org/Graphics/SVG/1.1/DTD/svg11.dtd">
<svg version="1.1" id="Layer_1" xmlns="http://www.w3.org/2000/svg" xmlns:xlink="http://www.w3.org/1999/xlink" x="0px" y="0px"
	 width="22px" height="22.129px" viewBox="-1 -1 22 22.129" enable-background="new -1 -1 22 22.129" xml:space="preserve">
<path fill="none" stroke="#FFFFFF" stroke-width="2" stroke-miterlimit="10" d="M10.002,0H9.998C4.484,0,0,4.485,0,10
	c0,2.188,0.705,4.215,1.904,5.861l-1.246,3.715l3.844-1.229C6.083,19.395,7.969,20,10.002,20C15.516,20,20,15.514,20,10
	S15.516,0,10.002,0z"/>
<path fill="#FAFAFA" d="M15.821,14.121c-0.241,0.682-1.198,1.246-1.962,1.411c-0.523,0.111-1.205,0.2-3.503-0.752
	c-2.939-1.218-4.832-4.204-4.979-4.398C5.236,10.188,4.19,8.801,4.19,7.366s0.729-2.134,1.022-2.434
	c0.241-0.247,0.64-0.359,1.022-0.359c0.124,0,0.235,0.006,0.335,0.011c0.294,0.013,0.441,0.03,0.635,0.494
	C7.446,5.66,8.034,7.095,8.104,7.243C8.175,7.39,8.246,7.59,8.146,7.784c-0.094,0.2-0.176,0.289-0.324,0.459
	c-0.147,0.17-0.287,0.3-0.435,0.482C7.252,8.884,7.1,9.054,7.27,9.348c0.17,0.287,0.757,1.246,1.623,2.016
	c1.116,0.994,2.021,1.312,2.345,1.447c0.241,0.1,0.528,0.076,0.705-0.111c0.224-0.242,0.5-0.642,0.781-1.035
	c0.2-0.283,0.452-0.318,0.718-0.218c0.27,0.094,1.699,0.8,1.992,0.946c0.294,0.147,0.488,0.217,0.559,0.342
	C16.062,12.857,16.062,13.438,15.821,14.121z"/>
</svg>
