<?xml version="1.0" encoding="utf-8"?>
<!-- Generator: Adobe Illustrator 16.0.0, SVG Export Plug-In . SVG Version: 6.00 Build 0)  -->
<!DOCTYPE svg PUBLIC "-//W3C//DTD SVG 1.1//EN" "http://www.w3.org/Graphics/SVG/1.1/DTD/svg11.dtd">
<svg version="1.1" id="Layer_1" xmlns="http://www.w3.org/2000/svg" xmlns:xlink="http://www.w3.org/1999/xlink" x="0px" y="0px"
	 width="22px" height="22.129px" viewBox="0 0 22 22.129" enable-background="new 0 0 22 22.129" xml:space="preserve">
<path fill="none" stroke="#FFFFFF" stroke-width="2" stroke-miterlimit="10" d="M11.002,1.064h-0.004C5.484,1.064,1,5.549,1,11.064
	c0,2.188,0.705,4.215,1.904,5.861l-1.246,3.715l3.844-1.229c1.581,1.047,3.467,1.652,5.5,1.652c5.514,0,9.998-4.486,9.998-10
	C21,5.55,16.516,1.064,11.002,1.064z"/>
<path fill="#FAFAFA" d="M16.709,15.1c-0.24,0.682-1.197,1.246-1.961,1.411c-0.523,0.11-1.205,0.2-3.503-0.752
	c-2.939-1.218-4.832-4.204-4.979-4.398c-0.141-0.194-1.187-1.581-1.187-3.016c0-1.435,0.729-2.134,1.022-2.434
	c0.241-0.247,0.64-0.359,1.022-0.359c0.124,0,0.235,0.006,0.335,0.011c0.294,0.013,0.441,0.03,0.635,0.494
	c0.242,0.582,0.83,2.017,0.9,2.165c0.071,0.147,0.142,0.347,0.042,0.541C8.94,8.962,8.859,9.052,8.71,9.222
	c-0.147,0.17-0.287,0.3-0.435,0.482c-0.135,0.159-0.287,0.329-0.117,0.623c0.17,0.287,0.757,1.246,1.623,2.016
	c1.116,0.993,2.021,1.312,2.345,1.446c0.24,0.101,0.527,0.076,0.705-0.11c0.224-0.242,0.5-0.642,0.781-1.035
	c0.199-0.283,0.451-0.317,0.717-0.218c0.271,0.094,1.699,0.8,1.992,0.945c0.295,0.147,0.488,0.217,0.56,0.342
	C16.951,13.836,16.951,14.416,16.709,15.1z"/>
</svg>
