<?xml version="1.0" encoding="utf-8"?>
<!-- Generator: Adobe Illustrator 16.0.0, SVG Export Plug-In . SVG Version: 6.00 Build 0)  -->
<!DOCTYPE svg PUBLIC "-//W3C//DTD SVG 1.1//EN" "http://www.w3.org/Graphics/SVG/1.1/DTD/svg11.dtd">
<svg version="1.1" id="_x2014_ÎÓÈ_x5F_1" xmlns="http://www.w3.org/2000/svg" xmlns:xlink="http://www.w3.org/1999/xlink"
	 x="0px" y="0px" width="405.714px" height="365.714px" viewBox="0 0 405.714 365.714" enable-background="new 0 0 405.714 365.714"
	 xml:space="preserve">
<g>
	<path opacity="0.5" fill="#173D7A" d="M243.06,317.637l-142.765-82.426c-4.039-2.332-3.532-6.405,1.131-9.097l97.213-56.108
		c4.663-2.692,11.718-2.984,15.756-0.653l142.767,82.426c4.038,2.331,3.531,6.405-1.132,9.097l-97.213,56.107
		C254.153,319.676,247.099,319.968,243.06,317.637z"/>
	<path fill="#173D7A" d="M397.162,92.498L248.607,6.729c-1.726-0.996-3.479-1.149-5.034-0.617l0.01-0.015l-0.27,0.102
		c-0.022,0.009-0.045,0.016-0.066,0.024l-5.368,2.055l4.818,2.359c-0.021,0.089-0.05,0.171-0.069,0.262l-24.197,110.145
		c-1.211,5.512,1.214,11.947,5.417,14.374l144.981,83.706l-0.517,6.144l5.867-2.274c1.971-0.922,3.55-3.006,4.202-5.977
		l24.197-110.144C403.79,101.359,401.365,94.924,397.162,92.498z"/>
	<path fill="#396CAA" d="M397.162,92.498L248.607,6.729c-1.726-0.996-3.479-1.149-5.034-0.617l0.01-0.015l-0.27,0.102
		c-0.022,0.009-0.045,0.016-0.066,0.024l-5.368,2.055l4.818,2.359c-0.021,0.089-0.05,0.171-0.069,0.262l-15.947,72.592
		l72.686,56.629l102.488-41.703C400.869,95.865,399.233,93.693,397.162,92.498z"/>
	<path fill="#274F89" d="M391.561,109.429l11.309-4.815c0.208-4.379-1.605-8.904-4.581-11.323l-17.9,7.529L391.561,109.429z"/>
	<path fill="#D4ECFF" d="M363.151,224.683l-148.555-85.769c-4.202-2.426-6.628-8.861-5.417-14.374l24.197-110.145
		c1.211-5.512,5.6-8.014,9.802-5.587l148.555,85.768c4.203,2.426,6.628,8.862,5.417,14.374l-24.197,110.145
		C371.742,224.607,367.354,227.109,363.151,224.683z"/>
	<path fill="#FFFFFF" d="M393.16,94.055L244.605,8.288c-2.036-1.176-4.108-1.174-5.85-0.255c1.397-0.305,2.92-0.092,4.423,0.776
		l148.555,85.768c4.203,2.427,6.628,8.862,5.417,14.374l-24.197,110.145c-0.624,2.842-2.1,4.862-3.952,5.841
		c2.508-0.548,4.601-2.822,5.379-6.363l24.196-110.144C399.787,102.917,397.362,96.481,393.16,94.055z"/>
	<path fill="#FFFFFF" d="M359.932,216.49l-139.714-80.624c-3.845-2.22-6.064-8.109-4.956-13.153l22.143-100.791
		c1.107-5.044,5.123-7.333,8.969-5.113l139.713,80.624c3.846,2.221,6.065,8.109,4.957,13.153L368.9,211.376
		C367.793,216.421,363.776,218.71,359.932,216.49z"/>
	<path fill="#173D7A" d="M359.932,216.49l-139.714-80.624c-3.845-2.22-6.064-8.109-4.956-13.153l22.143-100.791
		c1.107-5.044,5.123-7.333,8.969-5.113l139.713,80.624c3.846,2.221,6.065,8.109,4.957,13.153L368.9,211.376
		C367.793,216.421,363.776,218.71,359.932,216.49z"/>
	<path fill="#5793CE" d="M361.148,215.994L221.436,135.37c-3.846-2.22-6.064-8.109-4.956-13.152l22.143-100.792
		c0.561-2.553,1.868-4.391,3.52-5.305c-2.215,0.569-4.045,2.646-4.737,5.801l-22.143,100.791c-1.108,5.044,1.11,10.934,4.956,13.153
		l139.714,80.624c1.898,1.098,3.837,1.085,5.448,0.192C364.054,217.025,362.589,216.826,361.148,215.994z"/>
	<path fill="#173D7A" d="M365.202,228.417l-20.306-2.682l-131.083-75.68c-4.202-2.426-11.543-2.122-16.396,0.68l-92.884,53.607
		l-12.279-1.621v6.967l0.012,0.001c-0.081,1.61,0.836,3.159,2.819,4.304l148.555,85.768c4.202,2.427,11.543,2.123,16.396-0.68
		l101.154-58.381c2.729-1.576,4.091-3.607,4.011-5.514l0,0V228.417z"/>
	<path fill="#396CAA" d="M266.712,180.597l-9.313-5.377H155.011l-50.477,29.124l-12.279-1.621v6.967l0.012,0.001
		c-0.081,1.61,0.836,3.159,2.819,4.304l148.555,85.768c2.221,1.283,5.318,1.795,8.461,1.586L266.712,180.597z"/>
	<path fill="#5793CE" d="M97.704,203.441l-5.449-0.719v6.967l0.012,0.001c-0.081,1.61,0.836,3.159,2.819,4.304l2.618,1.512V203.441z
		"/>
	<path fill="#274F89" d="M245.138,300.457c3.982,1.511,9.678,1.182,13.931-0.865v-15.539h-13.931V300.457z"/>
	<path fill="#D4ECFF" d="M243.642,292.803L95.086,207.035c-4.203-2.426-3.675-6.664,1.177-9.466l101.154-58.382
		c4.853-2.802,12.193-3.106,16.396-0.68l148.555,85.768c4.203,2.427,3.676,6.664-1.177,9.467l-101.154,58.382
		C255.185,294.925,247.844,295.23,243.642,292.803z"/>
	<path fill="#FFFFFF" d="M361.191,231.197L260.037,289.58c-4.853,2.801-12.193,3.105-16.396,0.68L95.086,204.49
		c-1.378-0.795-2.237-1.787-2.612-2.857c-0.658,1.988,0.181,3.998,2.612,5.402l148.555,85.769c4.202,2.427,11.543,2.122,16.396-0.68
		l101.154-58.382c3.262-1.883,4.559-4.414,3.79-6.609C364.503,228.581,363.236,230.016,361.191,231.197z"/>
	<g>
		<path fill="#5793CE" d="M158.269,178.641l-6.722-3.881c-0.539-0.312-0.472-0.855,0.151-1.215l7.934-4.581
			c0.624-0.36,1.566-0.399,2.105-0.087l6.722,3.881c0.54,0.312,0.473,0.855-0.151,1.215l-7.934,4.581
			C159.751,178.913,158.809,178.952,158.269,178.641z"/>
		<path fill="#5793CE" d="M168.648,184.633l-6.721-3.88c-0.54-0.312-0.473-0.856,0.15-1.216l7.934-4.58
			c0.624-0.36,1.566-0.399,2.106-0.088l6.721,3.881c0.54,0.312,0.473,0.856-0.15,1.216l-7.934,4.581
			C170.131,184.906,169.188,184.945,168.648,184.633z"/>
		<path fill="#5793CE" d="M179.029,190.626l-6.722-3.881c-0.54-0.312-0.473-0.855,0.151-1.215l7.934-4.581
			c0.623-0.36,1.565-0.399,2.105-0.087l6.722,3.881c0.539,0.311,0.472,0.855-0.151,1.215l-7.934,4.58
			C180.511,190.899,179.568,190.938,179.029,190.626z"/>
		<path fill="#5793CE" d="M193.385,185.677l-6.722-3.881c-0.539-0.312-0.472-0.855,0.151-1.215l6.66-3.845
			c0.623-0.36,1.565-0.399,2.105-0.087l6.722,3.881c0.54,0.312,0.472,0.856-0.151,1.215l-6.66,3.845
			C194.867,185.95,193.925,185.989,193.385,185.677z"/>
		<path fill="#5793CE" d="M203.765,191.67l-6.721-3.881c-0.54-0.312-0.473-0.855,0.15-1.216l6.66-3.845
			c0.623-0.36,1.566-0.399,2.105-0.087l6.722,3.88c0.54,0.312,0.472,0.856-0.151,1.216l-6.659,3.846
			C205.247,191.943,204.305,191.982,203.765,191.67z"/>
		<path fill="#5793CE" d="M214.146,197.664l-6.722-3.881c-0.54-0.312-0.473-0.855,0.151-1.216l6.659-3.845
			c0.623-0.36,1.566-0.399,2.105-0.088l6.722,3.881c0.54,0.312,0.473,0.855-0.151,1.216l-6.659,3.845
			C215.627,197.935,214.685,197.974,214.146,197.664z"/>
		<path fill="#5793CE" d="M224.525,203.656l-6.722-3.881c-0.54-0.311-0.472-0.855,0.151-1.215l6.659-3.846
			c0.624-0.359,1.566-0.398,2.106-0.087l6.721,3.88c0.54,0.312,0.473,0.856-0.151,1.217l-6.659,3.845
			C226.008,203.929,225.064,203.968,224.525,203.656z"/>
		<path fill="#5793CE" d="M234.905,209.649l-6.722-3.881c-0.54-0.312-0.472-0.855,0.151-1.216l6.66-3.845
			c0.623-0.36,1.565-0.398,2.105-0.087l6.722,3.881c0.539,0.311,0.472,0.855-0.151,1.215l-6.66,3.846
			C236.388,209.921,235.445,209.96,234.905,209.649z"/>
		<path fill="#5793CE" d="M245.285,215.642l-6.722-3.881c-0.539-0.312-0.472-0.855,0.151-1.216l6.66-3.845
			c0.623-0.359,1.565-0.398,2.105-0.088l6.722,3.881c0.539,0.312,0.472,0.856-0.151,1.216l-6.66,3.845
			C246.768,215.914,245.825,215.953,245.285,215.642z"/>
		<path fill="#5793CE" d="M255.665,221.634l-6.722-3.881c-0.539-0.311-0.472-0.855,0.151-1.215l6.66-3.846
			c0.623-0.359,1.565-0.398,2.105-0.087l6.722,3.881c0.539,0.312,0.472,0.856-0.151,1.216l-6.66,3.845
			C257.147,221.908,256.205,221.947,255.665,221.634z"/>
		<path fill="#5793CE" d="M266.045,227.628l-6.721-3.881c-0.54-0.312-0.473-0.856,0.15-1.217l6.66-3.845
			c0.623-0.359,1.566-0.398,2.105-0.087l6.722,3.881c0.54,0.311,0.472,0.855-0.151,1.215l-6.66,3.846
			C267.527,227.9,266.585,227.939,266.045,227.628z"/>
		<path fill="#5793CE" d="M276.426,233.621l-6.722-3.881c-0.54-0.312-0.473-0.855,0.151-1.215l6.659-3.846
			c0.623-0.359,1.566-0.398,2.105-0.088l6.722,3.881c0.54,0.312,0.472,0.855-0.151,1.216l-6.659,3.845
			C277.907,233.893,276.965,233.932,276.426,233.621z"/>
		<path fill="#5793CE" d="M286.806,239.613l-6.722-3.88c-0.54-0.312-0.473-0.856,0.151-1.216l6.659-3.846
			c0.624-0.359,1.566-0.398,2.105-0.086l6.722,3.88c0.54,0.312,0.473,0.856-0.151,1.216l-6.659,3.846
			C288.288,239.886,287.345,239.925,286.806,239.613z"/>
		<path fill="#5793CE" d="M208.68,182.839l-6.722-3.88c-0.54-0.312-0.472-0.856,0.151-1.216l6.659-3.845
			c0.624-0.36,1.566-0.398,2.105-0.087l6.722,3.881c0.54,0.312,0.473,0.856-0.15,1.216l-6.66,3.846
			C210.162,183.113,209.219,183.152,208.68,182.839z"/>
		<path fill="#5793CE" d="M198.145,176.757l-6.722-3.88c-0.54-0.312-0.472-0.856,0.151-1.216l6.66-3.845
			c0.623-0.36,1.565-0.399,2.105-0.087l6.721,3.88c0.54,0.312,0.473,0.856-0.15,1.216l-6.66,3.845
			C199.627,177.03,198.685,177.069,198.145,176.757z"/>
		<path fill="#5793CE" d="M187.592,170.665l-14.476-8.358c-0.54-0.312-0.473-0.855,0.15-1.215l6.66-3.845
			c0.623-0.36,1.566-0.399,2.105-0.087l14.477,8.358c0.54,0.312,0.472,0.856-0.151,1.216l-6.66,3.845
			C189.074,170.938,188.132,170.977,187.592,170.665z"/>
		<path fill="#5793CE" d="M194.968,163.256l-11.748-6.783c-0.539-0.312-0.472-0.856,0.151-1.216l6.66-3.845
			c0.623-0.36,1.565-0.399,2.105-0.087l11.748,6.783c0.54,0.312,0.472,0.856-0.151,1.215l-6.66,3.845
			C196.45,163.529,195.508,163.568,194.968,163.256z"/>
		<path fill="#5793CE" d="M219.06,188.833l-6.722-3.881c-0.54-0.312-0.472-0.856,0.151-1.217l6.66-3.844
			c0.623-0.36,1.565-0.399,2.105-0.087l6.721,3.881c0.54,0.312,0.473,0.855-0.15,1.215l-6.66,3.846
			C220.542,189.105,219.6,189.144,219.06,188.833z"/>
		<path fill="#5793CE" d="M229.439,194.826l-6.722-3.881c-0.54-0.311-0.472-0.855,0.151-1.215l6.66-3.846
			c0.623-0.359,1.565-0.398,2.105-0.088l6.722,3.881c0.539,0.312,0.472,0.856-0.151,1.217l-6.66,3.844
			C230.922,195.098,229.979,195.137,229.439,194.826z"/>
		<path fill="#5793CE" d="M239.819,200.819l-6.722-3.881c-0.539-0.312-0.472-0.856,0.151-1.216l6.66-3.845
			c0.623-0.36,1.565-0.399,2.105-0.087l6.722,3.881c0.539,0.311,0.472,0.855-0.151,1.215l-6.66,3.846
			C241.302,201.091,240.359,201.13,239.819,200.819z"/>
		<path fill="#5793CE" d="M250.199,206.812l-6.722-3.881c-0.539-0.312-0.472-0.855,0.151-1.216l6.66-3.845
			c0.623-0.36,1.565-0.399,2.105-0.088l6.722,3.881c0.54,0.312,0.472,0.855-0.151,1.216l-6.66,3.845
			C251.682,207.083,250.739,207.123,250.199,206.812z"/>
		<path fill="#5793CE" d="M260.579,212.804l-6.721-3.881c-0.54-0.311-0.473-0.855,0.15-1.215l6.66-3.846
			c0.623-0.359,1.566-0.398,2.105-0.087l6.722,3.881c0.54,0.312,0.472,0.855-0.151,1.216l-6.66,3.845
			C262.062,213.078,261.119,213.117,260.579,212.804z"/>
		<path fill="#5793CE" d="M270.96,218.797l-6.722-3.88c-0.54-0.312-0.473-0.856,0.151-1.217l6.659-3.845
			c0.623-0.36,1.566-0.399,2.105-0.087l6.722,3.881c0.54,0.311,0.472,0.855-0.151,1.215l-6.659,3.846
			C272.441,219.07,271.499,219.109,270.96,218.797z"/>
		<path fill="#5793CE" d="M281.34,224.791l-6.722-3.881c-0.54-0.312-0.472-0.855,0.151-1.216l6.66-3.845
			c0.623-0.359,1.565-0.398,2.105-0.088l6.721,3.881c0.54,0.312,0.473,0.855-0.15,1.216l-6.66,3.845
			C282.822,225.063,281.879,225.102,281.34,224.791z"/>
		<path fill="#5793CE" d="M291.72,230.783l-6.722-3.881c-0.539-0.311-0.472-0.855,0.151-1.215l6.66-3.846
			c0.623-0.359,1.565-0.398,2.105-0.087l6.721,3.881c0.54,0.312,0.473,0.856-0.15,1.216l-6.66,3.845
			C293.202,231.056,292.26,231.095,291.72,230.783z"/>
		<path fill="#5793CE" d="M302.1,236.777l-6.722-3.881c-0.539-0.312-0.472-0.855,0.151-1.217l6.66-3.844
			c0.623-0.36,1.565-0.399,2.105-0.088l6.722,3.881c0.539,0.312,0.472,0.855-0.151,1.215l-6.66,3.846
			C303.582,237.048,302.64,237.087,302.1,236.777z"/>
		<path fill="#5793CE" d="M320.553,247.43l-14.665-8.468c-0.54-0.311-0.473-0.855,0.15-1.215l6.66-3.846
			c0.623-0.359,1.566-0.398,2.105-0.087l14.666,8.468c0.54,0.311,0.472,0.855-0.151,1.215l-6.66,3.846
			C322.035,247.703,321.093,247.742,320.553,247.43z"/>
		<path fill="#5793CE" d="M340.762,235.763l-12.379-7.146c-0.539-0.312-0.472-0.856,0.151-1.217l6.66-3.845
			c0.623-0.359,1.565-0.398,2.105-0.087l12.379,7.146c0.539,0.312,0.472,0.855-0.151,1.216l-6.66,3.845
			C342.244,236.035,341.302,236.074,340.762,235.763z"/>
		<path fill="#5793CE" d="M237.237,187.66l-6.722-3.88c-0.54-0.312-0.472-0.856,0.151-1.216l6.659-3.845
			c0.624-0.359,1.566-0.399,2.105-0.087l6.722,3.88c0.54,0.312,0.473,0.856-0.15,1.216l-6.66,3.845
			C238.72,187.933,237.776,187.972,237.237,187.66z"/>
		<path fill="#5793CE" d="M226.599,181.518l-6.722-3.88c-0.539-0.312-0.472-0.856,0.151-1.216l6.66-3.845
			c0.623-0.359,1.565-0.398,2.105-0.087l6.722,3.88c0.539,0.312,0.472,0.856-0.151,1.216l-6.66,3.845
			C228.081,181.791,227.139,181.83,226.599,181.518z"/>
		<path fill="#5793CE" d="M215.961,175.376l-6.722-3.88c-0.54-0.312-0.472-0.856,0.151-1.216l6.659-3.845
			c0.623-0.36,1.566-0.399,2.105-0.087l6.722,3.88c0.54,0.312,0.473,0.856-0.151,1.216l-6.659,3.845
			C217.443,175.649,216.5,175.688,215.961,175.376z"/>
		<path fill="#5793CE" d="M205.322,169.234l-6.722-3.88c-0.539-0.312-0.472-0.856,0.151-1.216l6.66-3.845
			c0.623-0.36,1.565-0.399,2.105-0.087l6.722,3.88c0.539,0.312,0.472,0.856-0.151,1.215l-6.66,3.845
			C206.805,169.507,205.862,169.546,205.322,169.234z"/>
		<path fill="#5793CE" d="M247.617,193.654l-6.722-3.881c-0.54-0.312-0.472-0.855,0.151-1.216l6.66-3.845
			c0.623-0.36,1.565-0.399,2.105-0.088l6.722,3.881c0.539,0.312,0.472,0.855-0.151,1.215l-6.66,3.846
			C249.1,193.925,248.157,193.964,247.617,193.654z"/>
		<path fill="#5793CE" d="M257.997,199.646l-6.722-3.881c-0.539-0.311-0.472-0.855,0.151-1.215l6.66-3.846
			c0.623-0.359,1.565-0.398,2.105-0.087l6.722,3.88c0.539,0.312,0.472,0.856-0.151,1.217l-6.66,3.845
			C259.479,199.919,258.537,199.958,257.997,199.646z"/>
		<path fill="#5793CE" d="M268.377,205.639l-6.722-3.881c-0.539-0.312-0.472-0.856,0.151-1.216l6.66-3.845
			c0.623-0.36,1.565-0.399,2.105-0.087l6.722,3.881c0.539,0.311,0.472,0.855-0.151,1.215l-6.66,3.846
			C269.859,205.912,268.917,205.951,268.377,205.639z"/>
		<path fill="#5793CE" d="M278.757,211.632l-6.721-3.881c-0.54-0.312-0.473-0.855,0.15-1.216l6.66-3.845
			c0.623-0.36,1.565-0.398,2.105-0.088l6.722,3.881c0.54,0.312,0.472,0.855-0.151,1.216l-6.66,3.845
			C280.239,211.904,279.297,211.943,278.757,211.632z"/>
		<path fill="#5793CE" d="M289.137,217.625l-6.721-3.881c-0.54-0.311-0.473-0.855,0.15-1.215l6.66-3.846
			c0.623-0.359,1.566-0.398,2.105-0.087l6.722,3.881c0.54,0.312,0.472,0.856-0.151,1.216l-6.659,3.845
			C290.619,217.898,289.677,217.937,289.137,217.625z"/>
		<path fill="#5793CE" d="M299.518,223.618l-6.722-3.88c-0.54-0.312-0.472-0.856,0.151-1.217l6.659-3.845
			c0.624-0.36,1.566-0.399,2.106-0.087l6.721,3.881c0.54,0.311,0.473,0.855-0.15,1.215l-6.66,3.846
			C301,223.89,300.057,223.929,299.518,223.618z"/>
		<path fill="#5793CE" d="M309.897,229.611l-6.722-3.881c-0.54-0.312-0.472-0.855,0.151-1.216l6.66-3.845
			c0.623-0.359,1.565-0.398,2.105-0.088l6.721,3.881c0.54,0.312,0.473,0.855-0.15,1.216l-6.66,3.845
			C311.38,229.883,310.438,229.922,309.897,229.611z"/>
		<path fill="#5793CE" d="M320.277,235.603l-6.722-3.88c-0.539-0.312-0.472-0.856,0.151-1.216l6.66-3.846
			c0.623-0.359,1.565-0.398,2.105-0.086l6.722,3.881c0.539,0.311,0.472,0.855-0.151,1.215l-6.66,3.846
			C321.76,235.876,320.817,235.916,320.277,235.603z"/>
		<path fill="#5793CE" d="M330.657,241.597l-6.722-3.881c-0.539-0.312-0.472-0.856,0.151-1.216l6.66-3.845
			c0.623-0.36,1.565-0.399,2.105-0.088l6.722,3.881c0.539,0.312,0.472,0.855-0.151,1.215l-6.66,3.846
			C332.14,241.869,331.197,241.908,330.657,241.597z"/>
		<path fill="#5793CE" d="M231.771,172.837l-6.722-3.881c-0.54-0.312-0.472-0.855,0.151-1.216l6.66-3.845
			c0.623-0.36,1.565-0.399,2.105-0.087l6.721,3.88c0.54,0.312,0.473,0.856-0.15,1.216l-6.66,3.845
			C233.254,173.11,232.311,173.149,231.771,172.837z"/>
		<path fill="#5793CE" d="M221.443,166.874l-6.722-3.88c-0.54-0.312-0.473-0.856,0.151-1.216l6.659-3.845
			c0.623-0.36,1.566-0.399,2.105-0.087l6.722,3.88c0.54,0.312,0.472,0.856-0.151,1.216l-6.659,3.845
			C222.926,167.146,221.982,167.186,221.443,166.874z"/>
		<path fill="#5793CE" d="M211.114,160.911l-6.722-3.881c-0.539-0.312-0.472-0.856,0.151-1.216l6.66-3.845
			c0.623-0.36,1.565-0.399,2.105-0.087l6.722,3.881c0.539,0.312,0.472,0.855-0.151,1.215l-6.66,3.845
			C212.597,161.184,211.654,161.223,211.114,160.911z"/>
		<path fill="#5793CE" d="M200.786,154.948l-6.722-3.88c-0.539-0.312-0.472-0.856,0.151-1.216l6.66-3.845
			c0.623-0.359,1.565-0.398,2.105-0.087l6.722,3.88c0.539,0.312,0.472,0.856-0.151,1.216l-6.66,3.845
			C202.269,155.22,201.326,155.259,200.786,154.948z"/>
		<path fill="#5793CE" d="M211.407,148.816l-6.722-3.88c-0.54-0.312-0.472-0.856,0.151-1.216l2.201-1.271
			c0.623-0.36,1.565-0.399,2.105-0.087l6.722,3.881c0.54,0.312,0.472,0.855-0.151,1.216l-2.201,1.271
			C212.89,149.088,211.946,149.127,211.407,148.816z"/>
		<path fill="#5793CE" d="M224.886,156.598l-6.722-3.88c-0.54-0.312-0.473-0.856,0.151-1.216l2.201-1.271
			c0.623-0.359,1.565-0.399,2.105-0.087l6.722,3.881c0.54,0.312,0.472,0.856-0.151,1.215l-2.201,1.271
			C226.368,156.871,225.425,156.91,224.886,156.598z"/>
		<path fill="#5793CE" d="M235.171,162.536l-6.722-3.881c-0.54-0.312-0.472-0.855,0.151-1.215l2.201-1.271
			c0.623-0.36,1.566-0.399,2.105-0.087l6.722,3.88c0.54,0.312,0.473,0.856-0.151,1.216l-2.201,1.271
			C236.653,162.809,235.711,162.848,235.171,162.536z"/>
		<path fill="#5793CE" d="M245.456,168.475l-6.722-3.881c-0.539-0.312-0.472-0.856,0.151-1.216l2.202-1.271
			c0.623-0.36,1.565-0.399,2.105-0.087l6.721,3.88c0.54,0.312,0.473,0.856-0.15,1.216l-2.202,1.271
			C246.938,168.747,245.996,168.786,245.456,168.475z"/>
		<path fill="#5793CE" d="M255.741,174.413l-6.722-3.881c-0.539-0.312-0.472-0.855,0.151-1.215l2.202-1.271
			c0.623-0.36,1.565-0.399,2.105-0.087l6.722,3.881c0.539,0.312,0.472,0.855-0.151,1.215l-2.202,1.271
			C257.224,174.685,256.281,174.724,255.741,174.413z"/>
		<path fill="#5793CE" d="M313.163,207.565l-6.722-3.881c-0.539-0.312-0.472-0.855,0.151-1.216l2.201-1.271
			c0.624-0.36,1.566-0.399,2.105-0.087l6.722,3.881c0.54,0.311,0.473,0.855-0.15,1.215l-2.202,1.271
			C314.646,207.837,313.703,207.876,313.163,207.565z"/>
		<path fill="#5793CE" d="M323.448,213.503l-6.722-3.881c-0.539-0.312-0.472-0.855,0.151-1.216l2.202-1.271
			c0.623-0.36,1.565-0.399,2.105-0.088l6.721,3.881c0.54,0.312,0.473,0.855-0.15,1.216l-2.202,1.271
			C324.931,213.776,323.988,213.815,323.448,213.503z"/>
		<path fill="#5793CE" d="M333.733,219.441l-6.721-3.881c-0.54-0.311-0.473-0.855,0.15-1.215l2.202-1.271
			c0.623-0.359,1.565-0.398,2.105-0.087l6.722,3.881c0.539,0.312,0.472,0.855-0.151,1.216l-2.201,1.271
			C335.216,219.714,334.273,219.753,333.733,219.441z"/>
		<path fill="#5793CE" d="M344.02,225.38l-6.722-3.881c-0.54-0.312-0.473-0.856,0.151-1.216l2.201-1.271
			c0.623-0.36,1.565-0.399,2.105-0.087l6.722,3.881c0.54,0.311,0.472,0.855-0.151,1.215l-2.201,1.271
			C345.502,225.652,344.559,225.691,344.02,225.38z"/>
		<path fill="#5793CE" d="M242.151,178.83l-6.722-3.88c-0.539-0.312-0.472-0.856,0.151-1.216l6.66-3.845
			c0.623-0.36,1.565-0.399,2.105-0.087l6.722,3.881c0.539,0.312,0.472,0.856-0.151,1.216l-6.66,3.845
			C243.634,179.103,242.691,179.142,242.151,178.83z"/>
		<path fill="#5793CE" d="M252.531,184.823l-6.722-3.88c-0.539-0.312-0.472-0.856,0.151-1.216l6.66-3.845
			c0.623-0.36,1.565-0.399,2.105-0.087l6.722,3.881c0.539,0.311,0.472,0.855-0.151,1.215l-6.66,3.845
			C254.014,185.095,253.071,185.134,252.531,184.823z"/>
		<path fill="#5793CE" d="M262.911,190.816l-6.722-3.881c-0.539-0.311-0.472-0.855,0.151-1.215l6.66-3.846
			c0.623-0.36,1.565-0.398,2.105-0.087l6.722,3.88c0.54,0.312,0.472,0.856-0.151,1.217l-6.66,3.845
			C264.394,191.088,263.451,191.127,262.911,190.816z"/>
		<path fill="#5793CE" d="M273.291,196.809l-6.721-3.881c-0.54-0.312-0.473-0.856,0.15-1.216l6.66-3.845
			c0.623-0.36,1.566-0.399,2.105-0.087l6.722,3.88c0.54,0.312,0.472,0.856-0.151,1.216l-6.659,3.846
			C274.773,197.082,273.831,197.121,273.291,196.809z"/>
		<path fill="#5793CE" d="M283.672,202.802l-6.722-3.881c-0.54-0.312-0.473-0.855,0.151-1.216l6.659-3.845
			c0.623-0.36,1.566-0.399,2.105-0.088l6.722,3.881c0.54,0.312,0.473,0.855-0.151,1.215l-6.659,3.846
			C285.154,203.074,284.211,203.113,283.672,202.802z"/>
		<path fill="#5793CE" d="M294.052,208.794l-6.722-3.881c-0.54-0.311-0.472-0.855,0.151-1.215l6.659-3.846
			c0.624-0.359,1.566-0.398,2.106-0.087l6.721,3.881c0.54,0.312,0.473,0.855-0.15,1.216l-6.66,3.845
			C295.534,209.068,294.591,209.107,294.052,208.794z"/>
		<path fill="#5793CE" d="M304.432,214.788l-6.722-3.881c-0.54-0.312-0.472-0.855,0.151-1.216l6.66-3.845
			c0.623-0.36,1.565-0.399,2.105-0.087l6.722,3.881c0.539,0.311,0.472,0.855-0.151,1.215l-6.66,3.846
			C305.914,215.06,304.972,215.099,304.432,214.788z"/>
		<path fill="#5793CE" d="M314.812,220.781l-6.722-3.881c-0.539-0.312-0.472-0.855,0.151-1.216l6.66-3.845
			c0.623-0.359,1.565-0.398,2.105-0.088l6.722,3.881c0.539,0.312,0.472,0.855-0.151,1.216l-6.66,3.845
			C316.294,221.052,315.352,221.092,314.812,220.781z"/>
		<path fill="#5793CE" d="M325.191,226.773l-6.722-3.881c-0.539-0.311-0.472-0.855,0.151-1.215l6.66-3.846
			c0.623-0.359,1.565-0.398,2.105-0.087l6.722,3.881c0.539,0.312,0.472,0.856-0.151,1.216l-6.66,3.845
			C326.674,227.046,325.731,227.085,325.191,226.773z"/>
		<path fill="#5793CE" d="M182.807,179.57l-19.795-11.429c-0.54-0.312-0.473-0.856,0.151-1.216l6.659-3.845
			c0.623-0.36,1.566-0.399,2.105-0.087l19.796,11.429c0.54,0.312,0.472,0.856-0.151,1.216l-6.66,3.845
			C184.289,179.842,183.347,179.881,182.807,179.57z"/>
		<path fill="#5793CE" d="M310.328,253.195l-19.795-11.43c-0.54-0.311-0.473-0.855,0.15-1.215l6.66-3.846
			c0.623-0.359,1.565-0.398,2.105-0.087l19.796,11.429c0.539,0.312,0.472,0.855-0.151,1.216l-6.66,3.845
			C311.811,253.466,310.868,253.505,310.328,253.195z"/>
		<path fill="#5793CE" d="M268.817,242.465l-6.722-3.88c-0.54-0.312-0.472-0.856,0.151-1.217l7.934-4.58
			c0.623-0.359,1.565-0.398,2.105-0.087l6.722,3.88c0.539,0.312,0.472,0.856-0.151,1.217l-7.934,4.58
			C270.3,242.738,269.356,242.777,268.817,242.465z"/>
		<path fill="#5793CE" d="M193.438,198.945l-10.75-6.206c-0.54-0.312-0.472-0.856,0.151-1.216l7.934-4.58
			c0.623-0.359,1.565-0.398,2.105-0.088l10.749,6.207c0.54,0.311,0.473,0.855-0.15,1.215l-7.934,4.581
			C194.919,199.217,193.977,199.256,193.438,198.945z"/>
		<path fill="#5793CE" d="M258.815,236.691l-10.749-6.206c-0.54-0.312-0.473-0.855,0.151-1.216l7.934-4.58
			c0.623-0.359,1.565-0.398,2.105-0.087l10.749,6.206c0.54,0.312,0.473,0.855-0.151,1.215l-7.934,4.581
			C260.298,236.964,259.355,237.003,258.815,236.691z"/>
		<path fill="#5793CE" d="M208.413,207.591l-10.749-6.206c-0.54-0.312-0.473-0.856,0.15-1.216l7.934-4.58
			c0.624-0.36,1.566-0.399,2.105-0.088l10.75,6.207c0.54,0.311,0.472,0.855-0.151,1.215l-7.934,4.581
			C209.896,207.864,208.953,207.903,208.413,207.591z"/>
		<path fill="#5793CE" d="M207.927,195.544l46.736,26.982c0.58,0.335,0.58,0.877,0,1.213l-8.091,4.67c-0.58,0.336-1.52,0.336-2.1,0
			l-46.736-26.982L207.927,195.544z"/>
		<path fill="#5793CE" d="M297.827,253.332l7.487,4.322c0.442,0.256,0.387,0.701-0.124,0.996l-3.245,1.875
			c-0.511,0.295-1.283,0.326-1.726,0.07l-7.487-4.322c-0.442-0.256-0.387-0.701,0.124-0.996l3.245-1.874
			C296.612,253.108,297.385,253.076,297.827,253.332z"/>
		<path fill="#5793CE" d="M287.361,247.289l7.487,4.322c0.442,0.256,0.387,0.702-0.124,0.997l-3.245,1.874
			c-0.511,0.295-1.284,0.326-1.727,0.071l-7.486-4.323c-0.442-0.255-0.388-0.701,0.124-0.996l3.245-1.873
			C286.146,247.066,286.919,247.033,287.361,247.289z"/>
		<path fill="#5793CE" d="M276.981,241.296l7.487,4.322c0.442,0.256,0.387,0.701-0.124,0.996l-3.245,1.874
			c-0.512,0.295-1.284,0.327-1.727,0.071l-7.487-4.322c-0.441-0.256-0.387-0.701,0.124-0.996l3.246-1.874
			C275.767,241.073,276.539,241.041,276.981,241.296z"/>
		<path fill="#5793CE" d="M293.094,243.98l7.487,4.322c0.442,0.256,0.387,0.701-0.124,0.996l-3.246,1.874
			c-0.511,0.295-1.283,0.327-1.726,0.071l-7.487-4.322c-0.442-0.256-0.387-0.701,0.124-0.996l3.246-1.875
			C291.879,243.755,292.651,243.724,293.094,243.98z"/>
	</g>
	<g>
		<polygon fill="#D4ECFF" points="334.096,127.042 278.184,94.761 278.903,91.126 334.815,123.407 		"/>
		<polygon fill="#D4ECFF" points="314.071,133.175 275.041,110.641 275.761,107.007 314.79,129.54 		"/>
		<polygon fill="#FFFFFF" points="310.378,122.195 276.612,102.701 277.332,99.066 311.097,118.561 		"/>
		<polygon fill="#FF2C9C" points="332.524,134.982 315.643,125.235 316.361,121.6 333.244,131.347 		"/>
		<polygon fill="#D4ECFF" points="272.229,63.048 255.347,53.301 256.066,49.667 272.949,59.414 		"/>
		<polygon fill="#FFFFFF" points="270.397,71.496 253.516,61.749 254.234,58.114 271.117,67.861 		"/>
		<polygon fill="#D4ECFF" points="353.26,188.663 336.377,178.916 337.097,175.281 353.979,185.028 		"/>
		<polygon fill="#D4ECFF" points="266.733,88.39 249.852,78.643 250.57,75.008 267.453,84.755 		"/>
	</g>
	<g>
		<path fill="#FF2C9C" d="M303.211,91.007c-0.538,1.173-1.896,1.592-3.035,0.935s-1.625-2.142-1.087-3.315
			c0.538-1.174,1.896-1.592,3.035-0.935S303.749,89.833,303.211,91.007z"/>
		<path fill="#FFFFFF" d="M310.482,95.206c-0.537,1.173-1.896,1.592-3.035,0.935s-1.625-2.142-1.087-3.315
			c0.538-1.173,1.897-1.592,3.035-0.935C310.534,92.547,311.021,94.032,310.482,95.206z"/>
		<path fill="#D4ECFF" d="M317.755,99.404c-0.538,1.173-1.897,1.592-3.036,0.935c-1.138-0.657-1.625-2.142-1.087-3.315
			s1.897-1.592,3.036-0.935C317.806,96.746,318.293,98.23,317.755,99.404z"/>
		<path fill="#FF2C9C" d="M325.026,103.602c-0.538,1.174-1.897,1.592-3.035,0.935c-1.139-0.657-1.625-2.142-1.087-3.314
			c0.537-1.174,1.896-1.592,3.035-0.936C325.078,100.944,325.564,102.428,325.026,103.602z"/>
	</g>
	<path fill="#FFFFFF" d="M204.158,254.903l-46.348-26.759c-1.35-0.779-1.181-2.14,0.378-3.039l27.969-16.148
		c1.558-0.898,3.914-0.996,5.264-0.217l46.348,26.758c1.35,0.779,1.18,2.141-0.378,3.039l-27.969,16.148
		C207.863,255.584,205.507,255.682,204.158,254.903z"/>
</g>
<g opacity="0.3">
	<defs>
		<path id="SVGID_1_" opacity="0.3" d="M330.016,190.171l22.735-92.821l-85.91-50.921l49.588-22.855l63.787,24.598
			c0,0,0.388,112.398,0,113.53c-0.388,1.132-23.63,38.842-23.63,38.842L330.016,190.171z"/>
	</defs>
	<clipPath id="SVGID_2_">
		<use xlink:href="#SVGID_1_"  overflow="visible"/>
	</clipPath>
	<g clip-path="url(#SVGID_2_)">
		<g>
			<g>
				<path fill="#D4ECFF" d="M304.743,134.389c3.193,1.843,3.192,4.843,0,6.686l-54.271,31.334c-0.878,0.506-2.302,0.506-3.179,0
					c-0.878-0.507-0.878-1.329,0-1.836l54.271-31.333c1.439-0.832,1.439-2.184,0-3.016l-5.259-3.036
					c0.584-0.879,1.114-1.794,1.634-2.728L304.743,134.389z"/>
				<path fill="#5793CE" d="M227.878,159.364l54.271-31.334c3.193-1.843,8.389-1.843,11.581,0l4.209,2.43
					c-0.52,0.934-1.05,1.849-1.634,2.728l-5.754-3.322c-1.44-0.832-3.783-0.832-5.223,0l-54.272,31.333
					c-0.877,0.507-2.301,0.507-3.179,0C227,160.693,227,159.871,227.878,159.364z"/>
			</g>
			<polygon fill="#5793CE" points="227.226,160.347 227.22,84.032 284.094,52.327 292.047,51.803 299.738,56.785 304.458,60.893 
				249.046,148.765 230.953,159.428 			"/>
			<polygon fill="#79B1E0" points="248.259,169.985 231.26,160.17 231.26,86.417 248.783,94.562 			"/>
			<polygon fill="#D4ECFF" points="307.137,61.483 307.137,137.673 247.432,171.825 246.635,171.505 246.635,95.204 			"/>
			<g>
				<path fill="#FFFFFF" d="M273.557,62.114l11.865-6.817c1.449-0.671,3.568-0.629,4.911,0.146l11.013,6.358
					c0.854,0.493,1.197,1.168,1.039,1.81l-29.983,17.917l-24.085,14.783l-17.057-9.895L273.557,62.114z"/>
			</g>
			<path fill="#5793CE" d="M248.783,94.006v75.707v1.604v1.466c-0.542-0.014-1.077-0.136-1.49-0.375
				c-0.432-0.249-0.648-0.574-0.656-0.901l-0.002-0.002v-0.012v-0.006V95.204L248.783,94.006z"/>
			<polygon fill="#FFFFFF" points="227.22,84.984 227.22,84.032 227.523,84.032 227.615,84.678 			"/>
			<polygon fill="#FFFFFF" points="246.636,96.192 246.636,95.217 246.929,95.631 			"/>
			<g>
				<path fill="#D4ECFF" d="M250.472,96.107l54.271-31.334c3.192-1.843,3.193-4.843,0-6.686l-11.013-6.358
					c-3.192-1.843-8.388-1.843-11.581,0l-54.271,31.333c-0.878,0.506-0.878,1.329,0,1.835s2.302,0.507,3.179,0l54.272-31.334
					c1.439-0.831,3.782-0.831,5.223,0l11.013,6.358c1.439,0.832,1.439,2.184,0,3.015l-54.271,31.334
					c-0.878,0.506-0.878,1.329,0,1.835C248.17,96.614,249.594,96.614,250.472,96.107z"/>
			</g>
			<polygon fill="#FFFFFF" points="264.615,132.229 292.817,115.946 292.817,87.674 264.615,103.957 			"/>
			<g>
				<path fill="#FFFFFF" d="M227.878,84.898c0.878,0.507,2.302,0.507,3.179,0l54.272-31.334c1.439-0.831,3.782-0.831,5.223,0
					l11.013,6.358c0.942,0.544,1.264,1.312,0.973,2.01c-0.154-0.368-0.476-0.718-0.973-1.005l-11.013-6.358
					c-1.44-0.831-3.783-0.831-5.223,0l-54.272,31.334c-0.877,0.507-2.301,0.507-3.179,0c-0.665-0.384-0.823-0.948-0.48-1.42
					C227.507,84.633,227.665,84.775,227.878,84.898z"/>
				<path fill="#FFFFFF" d="M247.293,96.107c0.877,0.507,2.301,0.507,3.179,0l54.271-31.334c1.375-0.794,2.154-1.803,2.345-2.841
					c0.252,1.373-0.527,2.797-2.345,3.846l-54.271,31.334c-0.878,0.507-2.302,0.507-3.179,0c-0.666-0.384-0.824-0.948-0.481-1.42
					C246.921,95.842,247.08,95.984,247.293,96.107z"/>
			</g>
		</g>
		<g>
			<g>
				<path fill="#FF2C9C" d="M329.694,149.161c3.192,1.843,3.192,4.843,0,6.686l-54.271,31.334c-0.878,0.506-2.302,0.506-3.18,0
					c-0.877-0.508-0.877-1.33,0.001-1.836l54.271-31.334c1.439-0.832,1.439-2.184,0-3.015l-5.259-3.036
					c0.584-0.879,1.114-1.794,1.634-2.728L329.694,149.161z"/>
				<path fill="#D3008D" d="M252.829,174.136l54.271-31.334c3.193-1.843,8.389-1.843,11.581,0l4.209,2.43
					c-0.52,0.934-1.05,1.849-1.634,2.728l-5.754-3.322c-1.44-0.832-3.783-0.832-5.223,0l-54.272,31.334
					c-0.877,0.506-2.301,0.506-3.179,0C251.951,175.465,251.951,174.643,252.829,174.136z"/>
			</g>
			<polygon fill="#D3008D" points="252.177,175.119 252.171,98.804 309.045,67.099 316.998,66.575 324.689,71.557 329.409,75.665 
				273.997,163.537 255.904,174.2 			"/>
			<polygon fill="#E573B5" points="273.21,184.757 256.21,174.943 256.21,101.188 273.734,109.334 			"/>
			<polygon fill="#FF2C9C" points="332.088,76.255 332.088,152.446 272.383,186.597 271.586,186.277 271.586,109.975 			"/>
			<g>
				<path fill="#FFFFFF" d="M298.508,76.886l11.865-6.818c1.449-0.671,3.568-0.628,4.911,0.147l11.013,6.358
					c0.854,0.492,1.196,1.167,1.039,1.81L297.353,96.3l-24.085,14.783l-17.058-9.895L298.508,76.886z"/>
			</g>
			<path fill="#D3008D" d="M273.734,108.778v75.706v1.605v1.466c-0.542-0.014-1.077-0.136-1.491-0.374
				c-0.431-0.25-0.647-0.575-0.655-0.902l-0.002-0.002v-0.012v-0.006v-76.284L273.734,108.778z"/>
			<polygon fill="#FFFFFF" points="252.171,99.756 252.171,98.804 252.475,98.804 252.566,99.451 			"/>
			<polygon fill="#FFFFFF" points="271.587,110.964 271.587,109.989 271.88,110.403 			"/>
			<g>
				<path fill="#FF2C9C" d="M275.423,110.878l54.271-31.333c3.192-1.844,3.192-4.843,0-6.687L318.682,66.5
					c-3.192-1.843-8.388-1.843-11.581,0l-54.271,31.333c-0.878,0.507-0.878,1.329,0,1.835c0.878,0.506,2.302,0.506,3.179,0
					l54.272-31.333c1.439-0.832,3.782-0.832,5.223,0l11.013,6.358c1.439,0.832,1.439,2.184,0,3.016l-54.271,31.333
					c-0.878,0.507-0.878,1.329-0.001,1.835C273.121,111.386,274.545,111.386,275.423,110.878z"/>
			</g>
			<polygon fill="#FFFFFF" points="289.566,147.001 317.769,130.718 317.769,102.446 289.566,118.729 			"/>
			<g>
				<path fill="#FFFFFF" d="M252.829,99.67c0.878,0.506,2.302,0.506,3.179,0l54.272-31.333c1.439-0.832,3.782-0.832,5.223,0
					l11.013,6.358c0.942,0.544,1.264,1.312,0.973,2.01c-0.154-0.368-0.476-0.718-0.973-1.005l-11.013-6.358
					c-1.44-0.832-3.783-0.832-5.223,0l-54.272,31.334c-0.877,0.507-2.301,0.507-3.179,0c-0.665-0.385-0.823-0.949-0.48-1.42
					C252.458,99.406,252.616,99.547,252.829,99.67z"/>
				<path fill="#FFFFFF" d="M272.243,110.879c0.878,0.506,2.302,0.506,3.18,0l54.271-31.333c1.375-0.793,2.154-1.802,2.345-2.84
					c0.252,1.372-0.527,2.796-2.345,3.846l-54.271,31.333c-0.878,0.507-2.302,0.507-3.18,0c-0.665-0.384-0.823-0.948-0.48-1.42
					C271.872,110.615,272.031,110.756,272.243,110.879z"/>
			</g>
		</g>
		<g>
			<g>
				<path fill="#D4ECFF" d="M355.333,164.948c3.192,1.844,3.192,4.843,0,6.687l-54.271,31.334c-0.878,0.506-2.302,0.506-3.18,0
					c-0.877-0.507-0.877-1.329,0.001-1.836l54.271-31.333c1.439-0.832,1.439-2.184,0-3.016l-5.259-3.036
					c0.584-0.879,1.114-1.794,1.633-2.728L355.333,164.948z"/>
				<path fill="#5793CE" d="M278.468,189.923l54.271-31.333c3.193-1.843,8.389-1.843,11.581,0l4.208,2.43
					c-0.519,0.934-1.049,1.849-1.633,2.728l-5.754-3.322c-1.44-0.832-3.783-0.832-5.223,0l-54.272,31.334
					c-0.877,0.506-2.301,0.506-3.179,0C277.59,191.252,277.59,190.43,278.468,189.923z"/>
			</g>
			<polygon fill="#5793CE" points="277.814,190.906 277.81,114.592 334.684,82.887 342.637,82.362 350.328,87.344 355.048,91.452 
				299.636,179.325 281.543,189.988 			"/>
			<polygon fill="#79B1E0" points="298.849,200.544 281.849,190.73 281.849,116.976 299.373,125.122 			"/>
			<polygon fill="#D4ECFF" points="357.727,92.043 357.727,168.233 298.021,202.384 297.225,202.065 297.225,125.763 			"/>
			<g>
				<path fill="#FFFFFF" d="M324.146,92.673l11.865-6.817c1.449-0.671,3.568-0.629,4.911,0.147l11.013,6.358
					c0.854,0.493,1.196,1.168,1.039,1.81l-29.983,17.917l-24.085,14.783l-17.058-9.895L324.146,92.673z"/>
			</g>
			<path fill="#5793CE" d="M299.373,124.565v75.707v1.604v1.467c-0.542-0.015-1.077-0.137-1.491-0.375
				c-0.431-0.25-0.647-0.574-0.655-0.901l-0.002-0.002v-0.012v-0.006v-76.285L299.373,124.565z"/>
			<polygon fill="#FFFFFF" points="277.81,115.543 277.81,114.592 278.113,114.592 278.205,115.238 			"/>
			<polygon fill="#FFFFFF" points="297.226,126.752 297.226,125.777 297.519,126.19 			"/>
			<g>
				<path fill="#D4ECFF" d="M301.062,126.667l54.271-31.334c3.192-1.843,3.192-4.843,0-6.686l-11.013-6.358
					c-3.192-1.843-8.388-1.843-11.581,0l-54.271,31.334c-0.878,0.507-0.878,1.329,0,1.835c0.878,0.506,2.302,0.506,3.179,0
					l54.272-31.334c1.439-0.831,3.782-0.831,5.223,0l11.013,6.358c1.439,0.831,1.439,2.184,0,3.015l-54.271,31.334
					c-0.878,0.507-0.878,1.329-0.001,1.835C298.76,127.173,300.184,127.173,301.062,126.667z"/>
			</g>
			<polygon fill="#FFFFFF" points="315.205,162.788 343.407,146.506 343.407,118.234 315.205,134.517 			"/>
			<g>
				<path fill="#FFFFFF" d="M278.468,115.458c0.878,0.506,2.302,0.506,3.179,0l54.272-31.334c1.439-0.831,3.782-0.831,5.223,0
					l11.013,6.358c0.942,0.544,1.264,1.312,0.972,2.01c-0.153-0.368-0.475-0.718-0.972-1.005l-11.013-6.358
					c-1.44-0.831-3.783-0.831-5.223,0l-54.272,31.334c-0.877,0.507-2.301,0.507-3.179,0c-0.665-0.384-0.824-0.948-0.48-1.42
					C278.097,115.193,278.255,115.335,278.468,115.458z"/>
				<path fill="#FFFFFF" d="M297.882,126.667c0.878,0.506,2.302,0.506,3.18,0l54.271-31.334c1.375-0.794,2.154-1.803,2.345-2.841
					c0.252,1.373-0.527,2.796-2.345,3.846l-54.271,31.334c-0.878,0.507-2.302,0.507-3.18,0c-0.665-0.384-0.823-0.948-0.48-1.42
					C297.511,126.402,297.67,126.543,297.882,126.667z"/>
			</g>
		</g>
	</g>
</g>
<g>
	<defs>
		<path id="SVGID_3_" d="M330.016,190.171l22.735-92.821l-85.91-50.921L162.094,85.384l80.384,104.894
			c0,0,66.368,37.819,65.98,38.951s48.128-28.685,48.128-28.685L330.016,190.171z"/>
	</defs>
	<clipPath id="SVGID_4_">
		<use xlink:href="#SVGID_3_"  overflow="visible"/>
	</clipPath>
	<g clip-path="url(#SVGID_4_)">
		<g>
			<g>
				<path fill="#D4ECFF" d="M304.743,134.389c3.193,1.843,3.192,4.843,0,6.686l-54.271,31.334c-0.878,0.506-2.302,0.506-3.179,0
					c-0.878-0.507-0.878-1.329,0-1.836l54.271-31.333c1.439-0.832,1.439-2.184,0-3.016l-5.259-3.036
					c0.584-0.879,1.114-1.794,1.634-2.728L304.743,134.389z"/>
				<path fill="#5793CE" d="M227.878,159.364l54.271-31.334c3.193-1.843,8.389-1.843,11.581,0l4.209,2.43
					c-0.52,0.934-1.05,1.849-1.634,2.728l-5.754-3.322c-1.44-0.832-3.783-0.832-5.223,0l-54.272,31.333
					c-0.877,0.507-2.301,0.507-3.179,0C227,160.693,227,159.871,227.878,159.364z"/>
			</g>
			<polygon fill="#5793CE" points="227.226,160.347 227.22,84.032 284.094,52.327 292.047,51.803 299.738,56.785 304.458,60.893 
				249.046,148.765 230.953,159.428 			"/>
			<polygon fill="#79B1E0" points="248.259,169.985 231.26,160.17 231.26,86.417 248.783,94.562 			"/>
			<polygon fill="#D4ECFF" points="307.137,61.483 307.137,137.673 247.432,171.825 246.635,171.505 246.635,95.204 			"/>
			<g>
				<path fill="#FFFFFF" d="M273.557,62.114l11.865-6.817c1.449-0.671,3.568-0.629,4.911,0.146l11.013,6.358
					c0.854,0.493,1.197,1.168,1.039,1.81l-29.983,17.917l-24.085,14.783l-17.057-9.895L273.557,62.114z"/>
			</g>
			<path fill="#5793CE" d="M248.783,94.006v75.707v1.604v1.466c-0.542-0.014-1.077-0.136-1.49-0.375
				c-0.432-0.249-0.648-0.574-0.656-0.901l-0.002-0.002v-0.012v-0.006V95.204L248.783,94.006z"/>
			<polygon fill="#FFFFFF" points="227.22,84.984 227.22,84.032 227.523,84.032 227.615,84.678 			"/>
			<polygon fill="#FFFFFF" points="246.636,96.192 246.636,95.217 246.929,95.631 			"/>
			<g>
				<path fill="#D4ECFF" d="M250.472,96.107l54.271-31.334c3.192-1.843,3.193-4.843,0-6.686l-11.013-6.358
					c-3.192-1.843-8.388-1.843-11.581,0l-54.271,31.333c-0.878,0.506-0.878,1.329,0,1.835s2.302,0.507,3.179,0l54.272-31.334
					c1.439-0.831,3.782-0.831,5.223,0l11.013,6.358c1.439,0.832,1.439,2.184,0,3.015l-54.271,31.334
					c-0.878,0.506-0.878,1.329,0,1.835C248.17,96.614,249.594,96.614,250.472,96.107z"/>
			</g>
			<polygon fill="#FFFFFF" points="264.615,132.229 292.817,115.946 292.817,87.674 264.615,103.957 			"/>
			<g>
				<path fill="#FFFFFF" d="M227.878,84.898c0.878,0.507,2.302,0.507,3.179,0l54.272-31.334c1.439-0.831,3.782-0.831,5.223,0
					l11.013,6.358c0.942,0.544,1.264,1.312,0.973,2.01c-0.154-0.368-0.476-0.718-0.973-1.005l-11.013-6.358
					c-1.44-0.831-3.783-0.831-5.223,0l-54.272,31.334c-0.877,0.507-2.301,0.507-3.179,0c-0.665-0.384-0.823-0.948-0.48-1.42
					C227.507,84.633,227.665,84.775,227.878,84.898z"/>
				<path fill="#FFFFFF" d="M247.293,96.107c0.877,0.507,2.301,0.507,3.179,0l54.271-31.334c1.375-0.794,2.154-1.803,2.345-2.841
					c0.252,1.373-0.527,2.797-2.345,3.846l-54.271,31.334c-0.878,0.507-2.302,0.507-3.179,0c-0.666-0.384-0.824-0.948-0.481-1.42
					C246.921,95.842,247.08,95.984,247.293,96.107z"/>
			</g>
		</g>
		<g>
			<g>
				<path fill="#FF2C9C" d="M329.694,149.161c3.192,1.843,3.192,4.843,0,6.686l-54.271,31.334c-0.878,0.506-2.302,0.506-3.18,0
					c-0.877-0.508-0.877-1.33,0.001-1.836l54.271-31.334c1.439-0.832,1.439-2.184,0-3.015l-5.259-3.036
					c0.584-0.879,1.114-1.794,1.634-2.728L329.694,149.161z"/>
				<path fill="#D3008D" d="M252.829,174.136l54.271-31.334c3.193-1.843,8.389-1.843,11.581,0l4.209,2.43
					c-0.52,0.934-1.05,1.849-1.634,2.728l-5.754-3.322c-1.44-0.832-3.783-0.832-5.223,0l-54.272,31.334
					c-0.877,0.506-2.301,0.506-3.179,0C251.951,175.465,251.951,174.643,252.829,174.136z"/>
			</g>
			<polygon fill="#D3008D" points="252.177,175.119 252.171,98.804 309.045,67.099 316.998,66.575 324.689,71.557 329.409,75.665 
				273.997,163.537 255.904,174.2 			"/>
			<polygon fill="#E573B5" points="273.21,184.757 256.21,174.943 256.21,101.188 273.734,109.334 			"/>
			<polygon fill="#FF2C9C" points="332.088,76.255 332.088,152.446 272.383,186.597 271.586,186.277 271.586,109.975 			"/>
			<g>
				<path fill="#FFFFFF" d="M298.508,76.886l11.865-6.818c1.449-0.671,3.568-0.628,4.911,0.147l11.013,6.358
					c0.854,0.492,1.196,1.167,1.039,1.81L297.353,96.3l-24.085,14.783l-17.058-9.895L298.508,76.886z"/>
			</g>
			<path fill="#D3008D" d="M273.734,108.778v75.706v1.605v1.466c-0.542-0.014-1.077-0.136-1.491-0.374
				c-0.431-0.25-0.647-0.575-0.655-0.902l-0.002-0.002v-0.012v-0.006v-76.284L273.734,108.778z"/>
			<polygon fill="#FFFFFF" points="252.171,99.756 252.171,98.804 252.475,98.804 252.566,99.451 			"/>
			<polygon fill="#FFFFFF" points="271.587,110.964 271.587,109.989 271.88,110.403 			"/>
			<g>
				<path fill="#FF2C9C" d="M275.423,110.878l54.271-31.333c3.192-1.844,3.192-4.843,0-6.687L318.682,66.5
					c-3.192-1.843-8.388-1.843-11.581,0l-54.271,31.333c-0.878,0.507-0.878,1.329,0,1.835c0.878,0.506,2.302,0.506,3.179,0
					l54.272-31.333c1.439-0.832,3.782-0.832,5.223,0l11.013,6.358c1.439,0.832,1.439,2.184,0,3.016l-54.271,31.333
					c-0.878,0.507-0.878,1.329-0.001,1.835C273.121,111.386,274.545,111.386,275.423,110.878z"/>
			</g>
			<polygon fill="#FFFFFF" points="289.566,147.001 317.769,130.718 317.769,102.446 289.566,118.729 			"/>
			<g>
				<path fill="#FFFFFF" d="M252.829,99.67c0.878,0.506,2.302,0.506,3.179,0l54.272-31.333c1.439-0.832,3.782-0.832,5.223,0
					l11.013,6.358c0.942,0.544,1.264,1.312,0.973,2.01c-0.154-0.368-0.476-0.718-0.973-1.005l-11.013-6.358
					c-1.44-0.832-3.783-0.832-5.223,0l-54.272,31.334c-0.877,0.507-2.301,0.507-3.179,0c-0.665-0.385-0.823-0.949-0.48-1.42
					C252.458,99.406,252.616,99.547,252.829,99.67z"/>
				<path fill="#FFFFFF" d="M272.243,110.879c0.878,0.506,2.302,0.506,3.18,0l54.271-31.333c1.375-0.793,2.154-1.802,2.345-2.84
					c0.252,1.372-0.527,2.796-2.345,3.846l-54.271,31.333c-0.878,0.507-2.302,0.507-3.18,0c-0.665-0.384-0.823-0.948-0.48-1.42
					C271.872,110.615,272.031,110.756,272.243,110.879z"/>
			</g>
		</g>
		<g>
			<g>
				<path fill="#D4ECFF" d="M355.333,164.948c3.192,1.844,3.192,4.843,0,6.687l-54.271,31.334c-0.878,0.506-2.302,0.506-3.18,0
					c-0.877-0.507-0.877-1.329,0.001-1.836l54.271-31.333c1.439-0.832,1.439-2.184,0-3.016l-5.259-3.036
					c0.584-0.879,1.114-1.794,1.633-2.728L355.333,164.948z"/>
				<path fill="#5793CE" d="M278.468,189.923l54.271-31.333c3.193-1.843,8.389-1.843,11.581,0l4.208,2.43
					c-0.519,0.934-1.049,1.849-1.633,2.728l-5.754-3.322c-1.44-0.832-3.783-0.832-5.223,0l-54.272,31.334
					c-0.877,0.506-2.301,0.506-3.179,0C277.59,191.252,277.59,190.43,278.468,189.923z"/>
			</g>
			<polygon fill="#5793CE" points="277.814,190.906 277.81,114.592 334.684,82.887 342.637,82.362 350.328,87.344 355.048,91.452 
				299.636,179.325 281.543,189.988 			"/>
			<polygon fill="#79B1E0" points="298.849,200.544 281.849,190.73 281.849,116.976 299.373,125.122 			"/>
			<polygon fill="#D4ECFF" points="357.727,92.043 357.727,168.233 298.021,202.384 297.225,202.065 297.225,125.763 			"/>
			<g>
				<path fill="#FFFFFF" d="M324.146,92.673l11.865-6.817c1.449-0.671,3.568-0.629,4.911,0.147l11.013,6.358
					c0.854,0.493,1.196,1.168,1.039,1.81l-29.983,17.917l-24.085,14.783l-17.058-9.895L324.146,92.673z"/>
			</g>
			<path fill="#5793CE" d="M299.373,124.565v75.707v1.604v1.467c-0.542-0.015-1.077-0.137-1.491-0.375
				c-0.431-0.25-0.647-0.574-0.655-0.901l-0.002-0.002v-0.012v-0.006v-76.285L299.373,124.565z"/>
			<polygon fill="#FFFFFF" points="277.81,115.543 277.81,114.592 278.113,114.592 278.205,115.238 			"/>
			<polygon fill="#FFFFFF" points="297.226,126.752 297.226,125.777 297.519,126.19 			"/>
			<g>
				<path fill="#D4ECFF" d="M301.062,126.667l54.271-31.334c3.192-1.843,3.192-4.843,0-6.686l-11.013-6.358
					c-3.192-1.843-8.388-1.843-11.581,0l-54.271,31.334c-0.878,0.507-0.878,1.329,0,1.835c0.878,0.506,2.302,0.506,3.179,0
					l54.272-31.334c1.439-0.831,3.782-0.831,5.223,0l11.013,6.358c1.439,0.831,1.439,2.184,0,3.015l-54.271,31.334
					c-0.878,0.507-0.878,1.329-0.001,1.835C298.76,127.173,300.184,127.173,301.062,126.667z"/>
			</g>
			<polygon fill="#FFFFFF" points="315.205,162.788 343.407,146.506 343.407,118.234 315.205,134.517 			"/>
			<g>
				<path fill="#FFFFFF" d="M278.468,115.458c0.878,0.506,2.302,0.506,3.179,0l54.272-31.334c1.439-0.831,3.782-0.831,5.223,0
					l11.013,6.358c0.942,0.544,1.264,1.312,0.972,2.01c-0.153-0.368-0.475-0.718-0.972-1.005l-11.013-6.358
					c-1.44-0.831-3.783-0.831-5.223,0l-54.272,31.334c-0.877,0.507-2.301,0.507-3.179,0c-0.665-0.384-0.824-0.948-0.48-1.42
					C278.097,115.193,278.255,115.335,278.468,115.458z"/>
				<path fill="#FFFFFF" d="M297.882,126.667c0.878,0.506,2.302,0.506,3.18,0l54.271-31.334c1.375-0.794,2.154-1.803,2.345-2.841
					c0.252,1.373-0.527,2.796-2.345,3.846l-54.271,31.334c-0.878,0.507-2.302,0.507-3.18,0c-0.665-0.384-0.823-0.948-0.48-1.42
					C297.511,126.402,297.67,126.543,297.882,126.667z"/>
			</g>
		</g>
	</g>
</g>
<g>
	<path opacity="0.5" fill="#173D7A" d="M378.503,287.475c-2.146-1.239-5.626-1.239-7.771,0L270.49,345.373
		c-2.146,1.238-2.146,3.248,0,4.486c2.146,1.238,5.625,1.238,7.771,0l100.241-57.896
		C380.649,290.723,380.649,288.714,378.503,287.475z"/>
	<g>
		<g>
			<path fill="#D4ECFF" d="M395.634,256.113L395.634,256.113c-0.097-0.163-0.286-0.246-0.472-0.207l-6.063,1.315l2.388,4.062
				l4.099-4.658C395.71,256.483,395.729,256.277,395.634,256.113z"/>
			<g>
				<path fill="#5793CE" d="M393.242,259.11c-0.007-0.875-0.629-1.935-1.39-2.365c-0.353-0.199-0.669-0.224-0.91-0.112
					c-7.007-0.057-13.898,1.787-19.939,5.338l-0.438,0.258l7.531,12.813l2.224-1.475c4.707-3.122,8.675-7.235,11.624-12.052
					l0.952-1.555C393.112,259.803,393.246,259.515,393.242,259.11z"/>
				<path fill="#D4ECFF" d="M379.609,271.627c-0.026-3.351-2.411-7.407-5.326-9.06c-2.915-1.653-5.257-0.277-5.23,3.074
					c0.025,3.351,2.41,7.407,5.325,9.061C377.293,276.355,379.636,274.978,379.609,271.627z"/>
				<polygon fill="#D4ECFF" points="333.396,302.89 378.097,275.042 370.565,262.228 324.496,287.75 				"/>
				<path fill="#D4ECFF" d="M335.184,298.856c-0.031-3.96-2.849-8.753-6.293-10.706s-6.212-0.326-6.182,3.633
					c0.031,3.96,2.849,8.753,6.293,10.706C332.447,304.442,335.215,302.816,335.184,298.856z"/>
			</g>
			<g>
				<path fill="#D4ECFF" d="M332.634,300.355c-0.031-3.96-2.849-8.753-6.293-10.706c-3.445-1.953-6.212-0.327-6.182,3.633
					c0.031,3.96,2.849,8.753,6.293,10.706C329.897,305.941,332.664,304.314,332.634,300.355z"/>
				
					<rect x="262.528" y="305.418" transform="matrix(-0.8621 0.5067 -0.5067 -0.8621 711.9396 434.6512)" fill="#D4ECFF" width="68.598" height="17.562"/>
				<path fill="#D4ECFF" d="M273.496,335.116c-0.031-3.96-2.849-8.753-6.293-10.706c-3.445-1.953-6.213-0.326-6.182,3.633
					c0.031,3.96,2.849,8.754,6.293,10.706C270.759,340.702,273.526,339.076,273.496,335.116z"/>
				<path fill="#396CAA" d="M271.264,333.85c-0.137-2.337-2.04-5.248-4.252-6.503c-2.211-1.254-3.894-0.375-3.758,1.962
					s2.04,5.248,4.251,6.502C269.717,337.065,271.399,336.187,271.264,333.85z"/>
			</g>
			<g>
				<path fill="#FFFFFF" d="M335.633,298.591c-0.031-3.959-2.849-8.752-6.293-10.705c-1.388-0.787-2.66-0.984-3.689-0.69
					c1.118-1.169,2.952-1.307,5.039-0.123c3.445,1.953,6.263,6.746,6.293,10.706c0.019,2.364-0.965,3.889-2.491,4.322
					C335.218,301.342,335.646,300.152,335.633,298.591z"/>
				<path fill="#5793CE" d="M335.633,298.591c-0.03-3.959-2.849-8.752-6.293-10.705c-1.723-0.977-3.275-1.059-4.395-0.4l-3.35,1.969
					l1.596,2.717c0.292,3.601,2.702,7.701,5.707,9.707l1.597,2.717l3.351-1.97l0,0C334.964,301.968,335.648,300.572,335.633,298.591
					z"/>
				<path fill="#D4ECFF" d="M332.282,300.561c-0.031-3.959-2.849-8.753-6.293-10.706s-6.212-0.326-6.182,3.633
					c0.031,3.961,2.849,8.754,6.293,10.707C329.546,306.148,332.312,304.521,332.282,300.561z"/>
			</g>
			<g>
				<path fill="#FF2C9C" d="M268.479,335.608l-3.84-6.532l-12.534,7.367c-1.804,1.061-2.407,3.383-1.347,5.187l0,0
					c1.061,1.804,3.382,2.406,5.187,1.347L268.479,335.608z"/>
				<path fill="#FF2C9C" d="M269.251,333.867c-0.014-1.707-1.229-3.775-2.716-4.619c-1.485-0.842-2.68-0.141-2.666,1.568
					c0.013,1.708,1.229,3.776,2.715,4.619C268.07,336.277,269.264,335.576,269.251,333.867z"/>
			</g>
			<g>
				<path fill="#5793CE" d="M283.183,310.809l-1.88-1.066c-1.079-0.612-2.508-0.459-4.021,0.431l-6.441,3.785
					c-1.216,0.715-2.196,2.443-2.185,3.854l0.024,3.224c0.005,0.541-0.261,1.162-0.647,1.619l0.241,1.494l-1.606-0.92l0.004-0.002
					c-0.232-0.117-0.38-0.389-0.384-0.785l-0.024-3.224c-0.023-2.94,2.021-6.546,4.556-8.035l6.441-3.786
					c2.152-1.266,4.183-1.482,5.719-0.612l1.879,1.066c1.08,0.612,2.508,0.459,4.021-0.431l25.964-15.262
					c0.336-0.197,0.64-0.213,0.858-0.083v-0.003l1.603,0.918l-1.372,0.528c-0.19,0.577-0.593,1.137-1.066,1.415l-25.965,15.262
					C286.749,311.462,284.718,311.679,283.183,310.809z"/>
				<path fill="#5793CE" d="M282.93,310.673c-1.08-0.611-2.508-0.459-4.021,0.431l-6.441,3.786
					c-1.216,0.715-2.196,2.443-2.185,3.854l0.024,3.225c0.006,0.766-0.524,1.703-1.186,2.091c-0.66,0.388-1.201,0.081-1.207-0.685
					l-0.025-3.225c-0.022-2.939,2.021-6.545,4.557-8.035l6.441-3.786c2.151-1.265,4.183-1.481,5.719-0.611l1.879,1.065
					c1.08,0.612,2.508,0.46,4.021-0.43l25.964-15.262c0.661-0.389,1.201-0.082,1.207,0.684c0.006,0.768-0.524,1.703-1.186,2.092
					l-25.964,15.262c-2.152,1.266-4.184,1.482-5.72,0.611L282.93,310.673z"/>
				<g>
					<path fill="#FFFFFF" d="M270.202,319.276l0.024,3.224c0.001,0.021-0.009,0.045-0.01,0.066c0.06-0.203,0.093-0.406,0.091-0.598
						l-0.024-3.225c-0.001-0.092,0.014-0.188,0.021-0.281C270.242,318.738,270.2,319.013,270.202,319.276z"/>
				</g>
			</g>
		</g>
	</g>
</g>
<g>
	<g>
		<path opacity="0.5" fill="#173D7A" d="M262.117,264.31c-7.961,4.597-20.869,4.597-28.83,0c-7.961-4.596-7.962-12.049,0-16.645
			c7.961-4.597,20.868-4.597,28.829,0C270.078,252.262,270.078,259.714,262.117,264.31z"/>
		<path fill="#FF2C9C" d="M270.895,245.921v-6.512h-1.229c-1.104-1.9-2.942-3.689-5.563-5.203c-9.058-5.229-23.742-5.229-32.8,0
			c-2.621,1.514-4.46,3.303-5.563,5.203h-1.228v6.477h0.001c-0.015,3.439,2.246,6.881,6.791,9.504
			c9.057,5.229,23.742,5.229,32.799,0C268.631,252.776,270.895,249.349,270.895,245.921z"/>
		<path fill="#FF2C9C" d="M264.102,248.878c-9.057,5.229-23.742,5.229-32.799,0c-9.058-5.229-9.058-13.707-0.001-18.938
			c9.058-5.229,23.742-5.229,32.8,0.001C273.158,235.171,273.159,243.65,264.102,248.878z"/>
		<path fill="#FFFFFF" d="M264.102,248.878c-9.057,5.229-23.742,5.229-32.799,0c-4.341-2.506-6.578-5.76-6.758-9.043
			c-0.196,3.568,2.041,7.172,6.758,9.895c9.057,5.23,23.742,5.23,32.799,0c4.717-2.723,6.953-6.326,6.758-9.895
			C270.68,243.119,268.442,246.373,264.102,248.878z"/>
	</g>
	<g>
		<path fill="#FFFFFF" d="M236.523,243.843c-0.391-0.226-0.612-0.532-0.611-0.854l0.023-8.724c0.001-0.666,0.938-1.204,2.091-1.203
			c1.153,0,2.084,0.541,2.083,1.207l-0.02,7.234l20.996-2.571c1.128-0.138,2.235,0.278,2.475,0.929
			c0.24,0.65-0.481,1.291-1.608,1.43l-23.52,2.879c-0.617,0.076-1.26-0.014-1.749-0.242
			C236.628,243.9,236.574,243.873,236.523,243.843z"/>
	</g>
</g>
<g>
	<g>
		<polygon opacity="0.5" fill="#173D7A" points="127.838,171.8 110.607,161.852 127.837,151.903 145.068,161.852 		"/>
		<polygon fill="#D3008D" points="145.068,149.221 127.838,159.169 127.838,139.273 145.068,129.325 		"/>
		<polygon fill="#FF2C9C" points="127.838,139.273 110.607,129.325 127.837,119.377 145.068,129.326 		"/>
		<polygon fill="#FF2C9C" points="127.838,159.169 110.607,149.221 110.607,129.325 127.838,139.273 		"/>
	</g>
	<polygon fill="#FFFFFF" points="121.632,148.421 116.813,145.639 116.813,140.074 121.632,142.856 	"/>
</g>
<g>
	<g>
		<polygon opacity="0.5" fill="#173D7A" points="20.645,350.173 2.706,339.816 20.644,329.458 38.583,339.816 		"/>
		<polygon fill="#173D7A" points="38.583,326.667 20.645,337.023 20.645,316.31 38.583,305.954 		"/>
		<polygon fill="#D4ECFF" points="20.645,316.31 2.706,305.954 20.644,295.597 38.582,305.954 		"/>
		<polygon fill="#5793CE" points="20.645,337.023 2.706,326.667 2.706,305.954 20.645,316.31 		"/>
	</g>
	<polygon fill="#FFFFFF" points="14.184,325.833 9.167,322.937 9.167,317.144 14.184,320.041 	"/>
</g>
<path opacity="0.5" fill="#173D7A" d="M85.888,326.003L19.04,287.409c-1.502-0.868-1.502-3.036,0-3.903l63.562-36.692l71.117,41.06
	c1.502,0.867,1.502,3.035,0,3.902l-59.294,34.229C91.783,327.529,88.529,327.529,85.888,326.003z"/>
<g>
	<g>
		<path fill="#FF2C9C" d="M83.959,220.052c0.004-4.244-2.985-5.974-6.664-3.854l-62.521,36.021
			c-1.011,0.583-1.832,2.001-1.833,3.169c-0.001,1.166,0.818,1.641,1.829,1.058l62.521-36.021c1.659-0.956,3.007-0.176,3.005,1.739
			l-0.006,6.991c1.213-0.075,2.431-0.077,3.66-0.056L83.959,220.052z"/>
		<path fill="#D3008D" d="M14.749,269.019l62.521-22.783c3.678-2.119,6.673-7.297,6.677-11.541l0.005-5.596
			c-1.229-0.021-2.447-0.02-3.66,0.056l-0.007,7.649c-0.002,1.915-1.353,4.25-3.012,5.205l-62.52,22.783
			c-1.011,0.582-1.832,2.001-1.833,3.168C12.918,269.126,13.737,269.601,14.749,269.019z"/>
	</g>
	<polygon fill="#D3008D" points="13.393,269.103 89.446,313.111 153.837,274.709 158.945,267.085 158.415,269.787 157.043,262.714 
		37.517,267.273 16.458,265.917 	"/>
	<polygon fill="#E573B5" points="15.915,255.822 15.894,265.183 89.399,307.71 91.385,298.788 	"/>
	<polygon fill="#FF2C9C" points="157.998,259.705 82.065,215.774 13.604,255.585 13.463,256.564 89.507,300.559 	"/>
	<g>
		<path fill="#FFFFFF" d="M133.791,282.264l17.854-10.591c1.504-1.057,2.683-3.193,2.685-4.979l0.014-1.402
			c0.001-1.135-0.475-1.866-1.205-2.079l-35.145,19.552l-28.62,15.479l0.026,9.467L133.791,282.264z"/>
	</g>
	<path fill="#D3008D" d="M91.94,299.109l-75.451-43.652l-1.599-0.926l-1.461-0.845c-0.299,0.548-0.486,1.151-0.486,1.702
		c0,0.573,0.199,0.977,0.52,1.172l0,0.004l0.012,0.007l0.005,0.003l76.027,43.985L91.94,299.109z"/>
	<polygon fill="#FFFFFF" points="88.498,312.562 89.446,313.111 89.621,312.808 89.03,312.343 	"/>
	<polygon fill="#FFFFFF" points="88.522,299.988 89.494,300.55 89.251,300.019 	"/>
	<g>
		<path fill="#FF2C9C" d="M90.819,296.214l62.521-36.021c3.678-2.119,6.667-0.391,6.663,3.855l-0.013,1.402
			c-0.004,4.244-2.999,9.422-6.678,11.541l-62.521,36.021c-1.011,0.583-1.83,0.109-1.829-1.059c0.001-1.166,0.822-2.585,1.833-3.168
			l62.521-36.021c1.659-0.955,3.01-3.29,3.012-5.205l0.013-1.402c0.002-1.914-1.346-2.694-3.005-1.738l-62.521,36.021
			c-1.011,0.582-1.83,0.108-1.829-1.059C88.987,298.216,89.808,296.796,90.819,296.214z"/>
	</g>
	<g>
		<path fill="#FFFFFF" d="M88.963,311.955c0.001-1.166,0.822-2.585,1.833-3.168l62.521-36.021c1.659-0.955,3.01-3.29,3.012-5.205
			l0.013-1.402c0.001-1.254-0.578-2.016-1.442-2.128c0.278,0.366,0.441,0.888,0.44,1.548l-0.013,1.403
			c-0.002,1.915-1.353,4.249-3.012,5.204l-62.52,36.021c-1.011,0.584-1.832,2.002-1.833,3.169c-0.001,0.884,0.47,1.368,1.138,1.298
			C89.013,312.478,88.963,312.238,88.963,311.955z"/>
		<path fill="#FFFFFF" d="M88.986,299.382c0.001-1.166,0.822-2.586,1.833-3.168l62.521-36.021c1.584-0.913,3.038-1.107,4.183-0.699
			c-1.222-1.043-3.091-1.087-5.185,0.119l-62.521,36.021c-1.011,0.583-1.832,2.002-1.833,3.169c-0.001,0.884,0.47,1.368,1.138,1.298
			C89.036,299.905,88.986,299.666,88.986,299.382z"/>
	</g>
	<polygon fill="#FFFFFF" points="60.07,260.571 94.566,240.696 124.483,258.004 89.987,277.879 	"/>
</g>
<g>
	<path opacity="0.5" fill="#173D7A" d="M145.378,356.695c13.81,7.974,36.2,7.974,50.01,0c13.811-7.973,13.811-20.9,0.001-28.873
		s-36.2-7.973-50.01,0C131.569,335.795,131.568,348.722,145.378,356.695z M158.89,335.623c6.348-3.664,16.64-3.665,22.988,0
		c6.348,3.665,6.348,9.607-0.001,13.271c-6.348,3.666-16.64,3.666-22.988,0.001C152.541,345.23,152.541,339.289,158.89,335.623z"/>
	<g>
		<g>
			<path fill="#B70083" d="M200.604,323.098l-12.614,0.196c-0.934-1.215-2.259-2.354-3.983-3.35
				c-6.937-4.005-17.845-4.314-25.401-0.934l-7.496-7.05l-11.542,0.18c0.57-0.373,1.156-0.741,1.774-1.098
				c16.039-9.261,42.044-9.261,58.084-0.001c2.949,1.703,5.352,3.602,7.217,5.623L200.604,323.098z"/>
			<polygon fill="#D3008D" points="139.567,293.824 139.567,312.141 151.109,311.961 151.109,293.643 			"/>
			<polygon fill="#B70083" points="158.605,300.693 158.605,319.011 151.109,311.961 151.109,293.643 			"/>
			<path fill="#B70083" d="M187.99,304.976v18.318l-16.594-13.521l-12.791,9.238v-18.318l11.777-5.714
				c0,0,16.215,4.964,17.058,5.174C188.283,300.364,187.99,304.976,187.99,304.976z"/>
			<polygon fill="#B70083" points="200.604,304.78 200.604,323.098 187.99,323.294 187.99,304.976 			"/>
			<polygon fill="#D3008D" points="206.643,298.347 206.643,316.666 200.604,323.098 200.604,304.78 			"/>
			<path fill="#FF2C9C" d="M200.604,304.78l-12.614,0.196c-0.934-1.215-2.259-2.354-3.983-3.35
				c-6.937-4.004-17.845-4.314-25.401-0.934l-7.496-7.05l-11.542,0.181c0.57-0.374,1.156-0.742,1.774-1.099
				c16.039-9.261,42.044-9.261,58.084-0.001c2.949,1.703,5.352,3.603,7.217,5.623L200.604,304.78z"/>
		</g>
		<g>
			<path fill="#5793CE" d="M154.806,302.946v16.839l-10.919-2.615c0,0,0.641-9.854,0.873-10.117S154.806,302.946,154.806,302.946z"
				/>
			<g>
				<path fill="#173D7A" d="M163.068,319.785v18.318l-1.18,1.257l-7.697-4.438c0,0,1.193-13.982,1.334-14.264
					S163.068,319.785,163.068,319.785z"/>
				<path fill="#396CAA" d="M148.204,315.056l6.602,6.207c-5.499,4.352-4.849,10.484,1.954,14.412
					c1.863,1.076,4.014,1.885,6.309,2.428l-6.822,7.27l6.045,5.686c-7.676-0.887-15-3.045-20.95-6.48
					c-13.789-7.961-15.711-20.17-5.793-29.324L148.204,315.056z"/>
				<polygon fill="#396CAA" points="162.291,332.74 162.291,351.058 147.322,345.277 129.319,328.101 129.386,308.65 
					148.434,323.748 				"/>
				<path fill="#D4ECFF" d="M148.204,296.738l6.602,6.208c-5.499,4.351-4.849,10.484,1.954,14.412
					c1.863,1.075,4.014,1.884,6.309,2.427l-6.822,7.27l6.045,5.686c-7.676-0.887-15-3.044-20.95-6.48
					c-13.789-7.96-15.711-20.17-5.793-29.324L148.204,296.738z"/>
			</g>
		</g>
		<g>
			<path fill="#396CAA" d="M162.34,345.277l6.014-6.406c5.583,0.339,11.374-0.725,15.652-3.195c4.42-2.551,6.24-6.034,5.468-9.354
				l14.32-0.224l5.507-5.866c4.816,8.267,1.53,17.761-9.876,24.347c-8.382,4.839-19.484,7.145-30.464,6.926L162.34,345.277z"/>
			<polygon fill="#396CAA" points="168.961,333.185 168.961,351.503 211.444,327.96 211.444,309.633 205.241,312.141 			"/>
			<polygon fill="#173D7A" points="162.34,326.958 162.34,345.277 168.961,351.503 168.961,333.185 			"/>
			<path fill="#5793CE" d="M162.34,326.958l6.014-6.406c5.583,0.34,11.374-0.725,15.652-3.195c4.42-2.551,6.24-6.034,5.468-9.354
				l14.32-0.224l5.507-5.866c4.816,8.266,1.53,17.76-9.876,24.346c-8.382,4.84-19.484,7.145-30.464,6.926L162.34,326.958z"/>
		</g>
	</g>
</g>
</svg>
