<?xml version="1.0" encoding="utf-8"?>
<!-- Generator: Adobe Illustrator 16.0.0, SVG Export Plug-In . SVG Version: 6.00 Build 0)  -->
<!DOCTYPE svg PUBLIC "-//W3C//DTD SVG 1.1//EN" "http://www.w3.org/Graphics/SVG/1.1/DTD/svg11.dtd">
<svg version="1.1" id="Layer_1" xmlns="http://www.w3.org/2000/svg" xmlns:xlink="http://www.w3.org/1999/xlink" x="0px" y="0px"
	 width="315.233px" height="95.521px" viewBox="0 0 315.233 95.521" enable-background="new 0 0 315.233 95.521"
	 xml:space="preserve">
<g>
	<path fill="#FFFFFF" d="M0,94.476V0.81h23.242c5.628,0,10.119,1.023,13.472,3.063c3.355,2.044,5.802,4.992,7.343,8.848
		c1.544,3.854,2.315,8.52,2.315,13.992c0,4.934-0.868,9.213-2.602,12.836c-1.736,3.624-4.298,6.418-7.691,8.383
		c-3.393,1.967-7.632,2.95-12.722,2.95H13.067v43.593H0z M13.067,41.514h6.014c3.776,0,6.745-0.421,8.903-1.271
		c2.157-0.847,3.701-2.331,4.625-4.453c0.927-2.12,1.388-5.105,1.388-8.962c0-4.47-0.329-7.9-0.983-10.291
		c-0.654-2.391-2.023-4.049-4.103-4.974c-2.082-0.925-5.319-1.388-9.714-1.388h-6.129V41.514z"/>
	<path fill="#FFFFFF" d="M55.508,94.476V0.81h18.848c6.246,0,11.41,0.828,15.497,2.487c4.084,1.659,7.112,4.317,9.077,7.978
		c1.967,3.663,2.951,8.463,2.951,14.398c0,3.624-0.389,6.919-1.158,9.886c-0.772,2.969-2.004,5.475-3.701,7.517
		c-1.696,2.044-3.932,3.526-6.708,4.451l13.3,46.948H91.008L78.75,50.534H68.575v43.941H55.508z M68.575,41.168h4.971
		c3.701,0,6.708-0.463,9.021-1.388c2.312-0.924,4.009-2.503,5.089-4.741c1.077-2.235,1.619-5.357,1.619-9.366
		c0-5.475-1.002-9.425-3.007-11.855c-2.004-2.428-5.976-3.642-11.912-3.642h-5.781V41.168z"/>
	<path fill="#FFFFFF" d="M139.459,95.521c-6.322,0-11.373-1.232-15.149-3.698c-3.778-2.471-6.475-5.995-8.096-10.587
		c-1.619-4.583-2.428-9.961-2.428-16.13v-35.5c0-6.167,0.828-11.467,2.487-15.902c1.656-4.433,4.355-7.823,8.096-10.176
		C128.107,1.177,133.138,0,139.459,0s11.333,1.195,15.034,3.586c3.701,2.39,6.378,5.78,8.037,10.175
		c1.656,4.395,2.487,9.677,2.487,15.843v35.618c0,6.089-0.831,11.411-2.487,15.956c-1.659,4.55-4.336,8.075-8.037,10.583
		C150.792,94.269,145.781,95.521,139.459,95.521z M139.459,85.225c3.47,0,6.089-0.71,7.863-2.136s2.967-3.431,3.585-6.014
		c0.617-2.583,0.925-5.609,0.925-9.082v-41.05c0-3.468-0.308-6.456-0.925-8.961c-0.619-2.503-1.812-4.432-3.585-5.783
		c-1.774-1.348-4.393-2.023-7.863-2.023s-6.11,0.675-7.921,2.023c-1.812,1.351-3.026,3.279-3.642,5.783
		c-0.619,2.506-0.925,5.494-0.925,8.961v41.05c0,3.473,0.306,6.499,0.925,9.082c0.616,2.583,1.831,4.588,3.642,6.014
		S135.989,85.225,139.459,85.225z"/>
	<path fill="#FFFFFF" d="M177.854,94.476V0.81h36.194v9.366H190.92v31.223h17.923v9.251H190.92v43.826H177.854z"/>
	<path fill="#FFFFFF" d="M223.068,94.476V0.81h36.194v9.366h-23.127v31.223h17.923v9.251h-17.923v43.826H223.068z"/>
	<path fill="#FFFFFF" d="M282.62,94.476V61.406L262.382,0.81h12.145l14.338,45.214L302.971,0.81h12.263l-20.12,60.597v33.069H282.62
		z"/>
</g>
</svg>
